<svg width="9" height="39" viewBox="0 0 9 39" fill="none" xmlns="http://www.w3.org/2000/svg">
<path d="M7.14066 36.061C7.14066 34.8566 6.50767 34.0653 5.5406 34.0653C4.38012 34.0653 4.22187 35.0588 4.08121 35.8324C3.99329 36.3247 3.91417 36.7292 3.59767 36.7292C3.32514 36.7292 3.1493 36.4918 3.1493 36.0962C3.1493 35.6478 3.33393 35.384 3.71196 35.3753L3.71196 34.1532C2.76248 34.162 2.12069 34.9181 2.12069 36.061C2.12069 37.2039 2.74489 37.9688 3.64163 37.9688C4.75816 37.9688 4.96036 37.0017 5.09224 36.2456C5.17136 35.7445 5.26807 35.3313 5.59335 35.3313C5.90985 35.3313 6.07689 35.6566 6.07689 36.0082C6.07689 36.4654 5.86589 36.7907 5.4439 36.7995L5.4439 38.0479C6.45492 38.0479 7.14066 37.2479 7.14066 36.061ZM2.12069 30.8002C2.12069 31.3893 2.33169 31.9167 2.69214 32.3212L2.25257 32.5409L2.25257 33.3849L8.71435 33.3849L8.71435 32.1014L6.74504 32.1014C7 31.7409 7.14946 31.2925 7.14946 30.8002C7.14946 29.3672 6.0681 28.3122 4.62628 28.3122C3.19326 28.3122 2.12069 29.3672 2.12069 30.8002ZM5.92743 30.9057C5.92743 31.653 5.37356 32.1981 4.62628 32.1981C3.88779 32.1981 3.32513 31.653 3.32513 30.9057C3.32513 30.1584 3.88779 29.6134 4.62628 29.6134C5.37356 29.6134 5.92743 30.1584 5.92743 30.9057ZM7.14066 25.4054C7.14066 23.9372 6.0593 22.8382 4.62628 22.8382C3.19326 22.8382 2.12069 23.9372 2.12069 25.4054C2.12069 26.8736 3.19326 27.9725 4.62628 27.9725C6.0593 27.9725 7.14066 26.8736 7.14066 25.4054ZM5.92743 25.4054C5.92743 26.1439 5.39994 26.6714 4.62628 26.6714C3.86142 26.6714 3.32513 26.1439 3.32513 25.4054C3.32513 24.6669 3.86142 24.1394 4.62628 24.1394C5.39994 24.1394 5.92743 24.6669 5.92743 25.4054ZM5.8571 19.9238C5.8571 20.3985 5.59335 20.6623 5.13619 20.6623L3.28997 20.6623L3.28997 19.3699L2.25257 19.3699L2.25257 20.6799L1.02175 20.6799L1.02175 20.926L3.00864 22.7986L3.28997 22.7986L3.28997 21.9458L5.31202 21.9458C6.35822 21.9458 7 21.3041 7 20.2579L7 19.3435L5.8571 19.3435L5.8571 19.9238ZM7 18.7309L7 17.4473L0.547007 17.4473L0.547007 18.7309L7 18.7309ZM1.61957 16.4791L1.61957 15.2043L0.432716 15.2043L0.432716 16.4791L1.61957 16.4791ZM7 16.4791L7 15.1955L2.25257 15.1955L2.25257 16.4791L7 16.4791ZM2.25257 10.3942L2.72731 10.6052C2.34927 11.0184 2.12069 11.5634 2.12069 12.1788C2.12069 13.5064 3.17568 14.5438 4.5032 14.5438C5.83951 14.5438 6.88571 13.5064 6.88571 12.1788C6.88571 11.6689 6.72746 11.203 6.46371 10.8249L6.63955 10.8249C7.33408 10.8249 7.75607 11.3612 7.75607 12.0118C7.75607 12.4865 7.53628 12.9877 7.1055 13.1371L7.1055 14.4119C8.18686 14.1921 8.84622 13.2778 8.84622 11.9942C8.84622 10.4909 7.94069 9.56775 6.45492 9.56775L2.26136 9.56775L2.25257 10.3942ZM5.73402 12.0294C5.73402 12.7327 5.21532 13.2426 4.51199 13.2426C3.79988 13.2426 3.28118 12.7327 3.28118 12.0294C3.28118 11.3261 3.79988 10.8162 4.51199 10.8162C5.21532 10.8162 5.73402 11.3261 5.73402 12.0294ZM2.14707 5.8762C2.14707 6.44765 2.35806 6.94877 2.70093 7.30922L0.547006 7.30922L0.547006 8.59279L7 8.59279L7 7.30922L4.51199 7.30922C3.73834 7.30922 3.27238 6.88723 3.27238 6.24544C3.27238 5.67399 3.62405 5.41904 4.33616 5.41904L7 5.41904L7 4.13547L4.11637 4.13547C2.91193 4.13547 2.14707 4.80363 2.14707 5.8762ZM5.8571 0.937823C5.8571 1.41257 5.59335 1.67631 5.13619 1.67631L3.28997 1.67631L3.28997 0.383956L2.25256 0.383956L2.25256 1.6939L1.02175 1.6939L1.02175 1.94006L3.00864 3.81266L3.28997 3.81266L3.28997 2.95988L5.31202 2.95988C6.35822 2.95988 7 2.3181 7 1.2719L7 0.357582L5.8571 0.357582L5.8571 0.937823Z" fill="white"/>
</svg>
