<svg width="17" height="17" viewBox="0 0 17 17" fill="none" xmlns="http://www.w3.org/2000/svg">
<path d="M14.6732 0.0166016C15.154 0.0166016 15.615 0.209797 15.955 0.553687C16.2949 0.897577 16.4859 1.36399 16.4859 1.85033V14.6864C16.4859 15.1727 16.2949 15.6391 15.955 15.983C15.615 16.3269 15.154 16.5201 14.6732 16.5201H1.98411C1.50335 16.5201 1.04227 16.3269 0.702322 15.983C0.36237 15.6391 0.171387 15.1727 0.171387 14.6864V1.85033C0.171387 1.36399 0.36237 0.897577 0.702322 0.553687C1.04227 0.209797 1.50335 0.0166016 1.98411 0.0166016H14.6732ZM14.22 14.228V9.3686C14.22 8.57587 13.9087 7.81562 13.3546 7.25508C12.8005 6.69453 12.0489 6.37963 11.2653 6.37963C10.4949 6.37963 9.59756 6.85639 9.16251 7.57155V6.55383H6.63375V14.228H9.16251V9.70784C9.16251 9.00185 9.72445 8.42423 10.4224 8.42423C10.7589 8.42423 11.0816 8.55947 11.3196 8.80019C11.5576 9.04091 11.6913 9.3674 11.6913 9.70784V14.228H14.22ZM3.68807 5.11436C4.09192 5.11436 4.47922 4.95207 4.76478 4.6632C5.05034 4.37434 5.21076 3.98255 5.21076 3.57403C5.21076 2.72135 4.53099 2.02453 3.68807 2.02453C3.28183 2.02453 2.89222 2.18778 2.60496 2.47837C2.3177 2.76895 2.15632 3.16308 2.15632 3.57403C2.15632 4.42671 2.84516 5.11436 3.68807 5.11436ZM4.94792 14.228V6.55383H2.43729V14.228H4.94792Z" fill="#27292A"/>
</svg>
