<?xml version="1.0" encoding="UTF-8" standalone="no"?>
<!-- Created with Inkscape (http://www.inkscape.org/) -->

<svg
   xmlns:dc="http://purl.org/dc/elements/1.1/"
   xmlns:cc="http://creativecommons.org/ns#"
   xmlns:rdf="http://www.w3.org/1999/02/22-rdf-syntax-ns#"
   xmlns:svg="http://www.w3.org/2000/svg"
   xmlns="http://www.w3.org/2000/svg"
   xmlns:sodipodi="http://sodipodi.sourceforge.net/DTD/sodipodi-0.dtd"
   xmlns:inkscape="http://www.inkscape.org/namespaces/inkscape"
   width="126.73542mm"
   height="54.768749mm"
   viewBox="0 0 126.73542 54.768749"
   version="1.1"
   id="svg8"
   inkscape:version="0.92.5 (2060ec1f9f, 2020-04-08)"
   sodipodi:docname="axs logo.svg">
  <defs
     id="defs2" />
  <sodipodi:namedview
     id="base"
     pagecolor="#ffffff"
     bordercolor="#666666"
     borderopacity="1.0"
     inkscape:pageopacity="0.0"
     inkscape:pageshadow="2"
     inkscape:zoom="1.6821407"
     inkscape:cx="301.15452"
     inkscape:cy="128.89982"
     inkscape:document-units="mm"
     inkscape:current-layer="layer1"
     showgrid="false"
     inkscape:pagecheckerboard="true"
     fit-margin-top="0"
     fit-margin-left="0"
     fit-margin-right="0"
     fit-margin-bottom="0"
     inkscape:window-width="1920"
     inkscape:window-height="1017"
     inkscape:window-x="1912"
     inkscape:window-y="70"
     inkscape:window-maximized="1" />
  <metadata
     id="metadata5">
    <rdf:RDF>
      <cc:Work
         rdf:about="">
        <dc:format>image/svg+xml</dc:format>
        <dc:type
           rdf:resource="http://purl.org/dc/dcmitype/StillImage" />
        <dc:title></dc:title>
      </cc:Work>
    </rdf:RDF>
  </metadata>
  <g
     inkscape:label="Layer 1"
     inkscape:groupmode="layer"
     id="layer1"
     transform="translate(-21.209009,-163.02767)">
    <g
       id="g817"
       transform="matrix(0.12673542,0,0,0.12611391,21.209009,163.02439)"
       style="fill:#0855a2;fill-opacity:1;fill-rule:evenodd">
      <path
         id="path815"
         d="m 911.05,150.798 c -18.146,-4.79 -39.681,-9.697 -57.808,-14.61 -3.625,-0.982 -45.393,-11.49 -45.393,-36.03 0,-27.792 34.061,-32.078 57.109,-32.078 28.406,0 64.784,10.927 75.443,15.438 10.658,4.511 14.827,0.826 20.176,-5.584 l 33.32,-39.948 c 2.038,-2.446 2.004,-7.902 -3.666,-10.408 0,0 -61.068,-27.063 -122.613,-27.063 -31.649,0 -57.993,2.175 -83.906,13.138 -25.64,10.86 -61.808,37.419 -61.808,92.566 0,74.146 55.48,92.03 82.426,100.129 20.683,6.225 79.679,16.535 96.123,28.576 11.939,8.742 15.557,22.57 12.894,35.747 -3.128,15.468 -20.755,28.904 -62.935,28.904 -33.714,0 -55.495,-8.454 -88.373,-24.734 -8.515,-4.217 -9.634,-4.27 -14.737,1.747 l -34.618,40.818 c -5.239,6.177 -9.016,11.037 -0.353,16.096 16.505,9.64 86.913,38.733 147.578,38.733 68.124,0 140.091,-26.663 140.091,-114.819 0,-42.527 -15.884,-87.333 -88.95,-106.618 M 205.318,275.9 c -13.28,18.168 -31.979,27.257 -56.087,27.257 -15.998,0 -28.669,-4.67 -38.013,-14.014 -9.333,-9.35 -14.014,-21.907 -14.014,-37.698 0,-21.194 6.752,-36.143 20.26,-44.868 13.492,-8.713 56.435,-11.958 56.435,-11.958 8.197,-0.625 21.64,-1.13 29.854,-1.13 h 6.56 c 8.22,0 14.938,1.936 14.938,9.037 0,27.697 -6.653,55.203 -19.933,73.375 M 162.011,0.026 c -71.6,0 -119.52,20.64 -130.028,25.112 -6.692,2.848 -6.304,8.263 -4.267,10.707 l 33.32,39.95 c 7.363,8.824 11.61,8.608 18.482,6.211 0.19,-0.066 33.744,-14.375 82.493,-14.375 20.765,0 36.426,3.902 47.2,11.373 14.576,10.109 14.84,27.506 15.882,37.976 0.697,7.004 -6.56,10.778 -14.78,10.778 h -48.302 c -55.25,0 -96.074,9.714 -122.443,29.125 C 13.193,176.306 0,206.371 0,247.075 c 0,37.61 11.057,66.888 33.181,87.865 22.124,20.977 53.79,31.474 92.692,31.474 39.138,0 71.745,-13.655 99.349,-48.346 7.019,-8.822 11.712,-1.46 11.712,-1.46 l 31.017,36.46 c 0,0 0.218,0.272 0.636,0.678 1.24,1.209 4.284,3.641 8.721,3.641 h 30.13 c 5.26,0 8.414,-2.816 8.472,-6.838 V 158.29 C 315.91,98.887 304.446,57.662 281.474,34.592 258.535,11.556 218.707,0.026 162.011,0.026 m 564.683,14.829 c 4.674,-5.518 2.598,-9.986 -4.61,-9.986 H 570.256 c -5.414,0 -11.835,3.938 -14.29,8.761 L 543.968,37.555 591.896,173.794 726.695,14.854 Z M 690.847,424.929 482.377,16.55 C 479.104,10.119 470.548,4.868 463.314,4.868 H 313.626 c -7.202,0 -9.296,4.468 -4.61,9.986 l 144.496,173.234 -79.739,157.878 c -3.256,6.441 0,11.724 7.209,11.724 l 42.41,-0.004 c 5.902,0 9.344,-4.307 9.344,-4.307 l 80.028,-94.256 138.213,165.82 c 0.053,0.064 7.58,9.363 16.067,9.363 h 18.244 c 2.433,0 10.385,0.074 5.562,-9.374 l -0.003,-0.004"
         inkscape:connector-curvature="0"
         style="fill:#0855a2;fill-opacity:1" />
    </g>
  </g>
</svg>
