<svg width="193" height="149" viewBox="0 0 193 149" fill="none" xmlns="http://www.w3.org/2000/svg">
<path fill-rule="evenodd" clip-rule="evenodd" d="M183.703 101.569V81.655C170.137 80.5357 159.475 69.1705 159.475 55.3151C159.475 41.4597 170.137 30.0944 183.703 28.9752V9.06232C183.703 4.19663 179.759 0.252197 174.893 0.252197H88.9944V0.252608H18.5138C13.6481 0.252608 9.70361 4.19704 9.70361 9.06274V28.9755C23.2702 30.0947 33.9315 41.46 33.9315 55.3154C33.9315 69.1708 23.2702 80.5362 9.70361 81.6553V101.569C9.70361 106.435 13.648 110.379 18.5137 110.379H104.412V110.379H174.893C179.759 110.379 183.703 106.434 183.703 101.569Z" fill="url(#paint0_linear_57_2122)" fill-opacity="0.8"/>
<circle cx="76.9016" cy="74.016" r="3.90855" transform="rotate(45 76.9016 74.016)" fill="white"/>
<circle cx="87.6921" cy="62.5485" r="7.33758" transform="rotate(45 87.6921 62.5485)" fill="white"/>
<circle cx="104.605" cy="44.6466" r="12.7028" transform="rotate(45 104.605 44.6466)" fill="white"/>
<g filter="url(#filter0_df_57_2122)">
<ellipse cx="96.7036" cy="130.752" rx="87" ry="4.5" fill="#A7A6B4" fill-opacity="0.9" shape-rendering="crispEdges"/>
</g>
<defs>
<filter id="filter0_df_57_2122" x="0.703613" y="121.252" width="192" height="27" filterUnits="userSpaceOnUse" color-interpolation-filters="sRGB">
<feFlood flood-opacity="0" result="BackgroundImageFix"/>
<feColorMatrix in="SourceAlpha" type="matrix" values="0 0 0 0 0 0 0 0 0 0 0 0 0 0 0 0 0 0 127 0" result="hardAlpha"/>
<feOffset dy="4"/>
<feGaussianBlur stdDeviation="4.5"/>
<feComposite in2="hardAlpha" operator="out"/>
<feColorMatrix type="matrix" values="0 0 0 0 0 0 0 0 0 0 0 0 0 0 0 0 0 0 0.25 0"/>
<feBlend mode="normal" in2="BackgroundImageFix" result="effect1_dropShadow_57_2122"/>
<feBlend mode="normal" in="SourceGraphic" in2="effect1_dropShadow_57_2122" result="shape"/>
<feGaussianBlur stdDeviation="2" result="effect2_foregroundBlur_57_2122"/>
</filter>
<linearGradient id="paint0_linear_57_2122" x1="96.7034" y1="0.252197" x2="96.7034" y2="110.379" gradientUnits="userSpaceOnUse">
<stop stop-color="#5D51F2"/>
<stop offset="1" stop-color="#2D1EE8"/>
</linearGradient>
</defs>
</svg>
