<?xml version="1.0" encoding="UTF-8" standalone="no"?>
<!-- Created with Inkscape (http://www.inkscape.org/) -->

<svg
   xmlns:dc="http://purl.org/dc/elements/1.1/"
   xmlns:cc="http://creativecommons.org/ns#"
   xmlns:rdf="http://www.w3.org/1999/02/22-rdf-syntax-ns#"
   xmlns:svg="http://www.w3.org/2000/svg"
   xmlns="http://www.w3.org/2000/svg"
   xmlns:sodipodi="http://sodipodi.sourceforge.net/DTD/sodipodi-0.dtd"
   xmlns:inkscape="http://www.inkscape.org/namespaces/inkscape"
   width="210.87291mm"
   height="32.808792mm"
   viewBox="0 0 210.87291 32.808792"
   version="1.1"
   id="svg8"
   inkscape:version="0.92.5 (2060ec1f9f, 2020-04-08)"
   sodipodi:docname="gametime logo.svg">
  <defs
     id="defs2" />
  <sodipodi:namedview
     id="base"
     pagecolor="#ffffff"
     bordercolor="#666666"
     borderopacity="1.0"
     inkscape:pageopacity="0.0"
     inkscape:pageshadow="2"
     inkscape:zoom="1.4142136"
     inkscape:cx="422.6258"
     inkscape:cy="173.72227"
     inkscape:document-units="mm"
     inkscape:current-layer="layer1"
     showgrid="false"
     inkscape:pagecheckerboard="true"
     fit-margin-top="0"
     fit-margin-left="0"
     fit-margin-right="0"
     fit-margin-bottom="0"
     inkscape:window-width="1920"
     inkscape:window-height="1017"
     inkscape:window-x="1912"
     inkscape:window-y="70"
     inkscape:window-maximized="1" />
  <metadata
     id="metadata5">
    <rdf:RDF>
      <cc:Work
         rdf:about="">
        <dc:format>image/svg+xml</dc:format>
        <dc:type
           rdf:resource="http://purl.org/dc/dcmitype/StillImage" />
        <dc:title></dc:title>
      </cc:Work>
    </rdf:RDF>
  </metadata>
  <g
     inkscape:label="Layer 1"
     inkscape:groupmode="layer"
     id="layer1"
     transform="translate(-4.2598641,-137.19199)">
    <g
       style="fill:none"
       id="g835"
       transform="matrix(1.5057246,0,0,1.4894003,4.3313363,137.2186)">
      <path
         id="path817"
         d="M 133.8,0.4 140,11 133.8,21.6 h -11.4 c -0.5,0 -0.7,-0.5 -0.5,-0.9 z"
         inkscape:connector-curvature="0"
         style="fill:#00ef9f" />
      <path
         id="path819"
         d="m 121.9,1.3 4.4,7.6 7.5,-8.5 h -11.4 c -0.5,0 -0.8,0.5 -0.5,0.9 z"
         inkscape:connector-curvature="0"
         style="fill:#19ce85" />
      <path
         id="path821"
         d="m 133.8,0.4 -7.5,8.5 1.3,2.1 z"
         inkscape:connector-curvature="0"
         style="fill:#21aa6f" />
      <path
         id="path823"
         d="m 23.3,0.4 h -2.9 c -0.2,0 -0.5,0.2 -0.5,0.4 L 14.8,21 c -0.1,0.3 0.2,0.6 0.5,0.6 h 2.8 c 0.3,0 0.5,-0.2 0.5,-0.4 l 0.7,-3 c 0,-0.2 0.2,-0.3 0.4,-0.3 h 4.2 c 0.2,0 0.4,0.1 0.4,0.3 l 0.7,3 c 0.1,0.3 0.3,0.4 0.5,0.4 h 2.7 c 0.3,0 0.6,-0.3 0.5,-0.6 l -5,-20.2 c 0,-0.3 -0.2,-0.4 -0.4,-0.4 z m -3.2,13.7 1.7,-8.2 h 0.1 l 1.6,8.2 c 0,0.2 -0.1,0.4 -0.3,0.4 h -2.9 c -0.1,0 -0.2,-0.2 -0.2,-0.4 z m 11.5,7 V 0.9 c 0,-0.3 0.2,-0.5 0.5,-0.5 h 2.5 c 0.2,0 0.4,0.1 0.5,0.3 L 39,9.2 h 0.1 L 43,0.7 C 43.1,0.5 43.3,0.4 43.5,0.4 H 46 c 0.3,0 0.5,0.2 0.5,0.5 v 20.2 c 0,0.3 -0.2,0.5 -0.5,0.5 h -2.8 c -0.3,0 -0.5,-0.2 -0.5,-0.5 V 9.3 h -0.1 l -2.2,4.5 c -0.1,0.2 -0.3,0.3 -0.5,0.3 h -1.6 c -0.2,0 -0.4,-0.1 -0.5,-0.3 L 35.4,9.3 h -0.1 v 11.8 c 0,0.3 -0.2,0.5 -0.5,0.5 h -2.6 c -0.4,0 -0.6,-0.2 -0.6,-0.5 z m 55.3,0 V 0.9 c 0,-0.3 0.2,-0.5 0.5,-0.5 H 90 c 0.2,0 0.4,0.1 0.5,0.3 l 4,8.5 h 0.1 l 3.8,-8.4 c 0.1,-0.2 0.3,-0.3 0.5,-0.3 h 2.5 c 0.3,0 0.5,0.2 0.5,0.5 v 20.2 c 0,0.3 -0.2,0.5 -0.5,0.5 h -2.8 c -0.3,0 -0.5,-0.2 -0.5,-0.5 V 9.3 H 98 l -2.2,4.5 c -0.1,0.2 -0.3,0.3 -0.5,0.3 h -1.6 c -0.2,0 -0.4,-0.1 -0.5,-0.3 L 90.9,9.3 h -0.1 v 11.8 c 0,0.3 -0.2,0.5 -0.5,0.5 h -2.6 c -0.5,0 -0.8,-0.2 -0.8,-0.5 z M 83,21.6 h -3 c -0.3,0 -0.5,-0.2 -0.5,-0.5 V 0.9 c 0,-0.3 0.2,-0.5 0.5,-0.5 h 3 c 0.3,0 0.5,0.2 0.5,0.5 v 20.2 c 0,0.3 -0.3,0.5 -0.5,0.5 z M 76.3,0.9 C 76.3,0.6 76.1,0.4 75.8,0.4 H 64.5 C 64.2,0.4 64,0.6 64,0.9 V 3.4 C 64,3.7 64.2,4 64.5,4 h 3.3 c 0.2,0 0.3,0.1 0.3,0.3 v 16.9 c 0,0.3 0.2,0.4 0.4,0.4 h 3.1 c 0.3,0 0.4,-0.2 0.4,-0.4 V 4.2 C 72,4 72.1,3.9 72.3,3.9 h 3.3 c 0.3,0 0.5,-0.2 0.5,-0.5 z M 54,17.8 v -4.9 c 0,-0.2 0.1,-0.3 0.3,-0.3 H 60 c 0.3,0 0.4,-0.2 0.4,-0.4 V 9.6 C 60.4,9.3 60.2,9.2 60,9.2 H 54.3 C 54.1,9.1 54,9 54,8.8 V 4.2 C 54,4 54.1,3.9 54.3,3.9 h 6.5 c 0.3,0 0.4,-0.2 0.4,-0.4 V 0.8 C 61.2,0.5 61,0.4 60.8,0.4 H 50.4 C 50.1,0.4 50,0.6 50,0.8 v 20.3 c 0,0.3 0.2,0.4 0.4,0.4 h 10.7 c 0.3,0 0.4,-0.2 0.4,-0.4 v -2.6 c 0,-0.3 -0.2,-0.4 -0.4,-0.4 H 54.2 C 54.1,18.1 54,17.9 54,17.8 Z m 55.3,0 v -4.9 c 0,-0.2 0.1,-0.3 0.3,-0.3 h 5.6 c 0.3,0 0.5,-0.2 0.5,-0.5 V 9.7 c 0,-0.3 -0.2,-0.5 -0.5,-0.5 h -5.6 c -0.2,0 -0.3,-0.1 -0.3,-0.3 V 4.2 c 0,-0.2 0.1,-0.3 0.3,-0.3 h 6.5 c 0.3,0 0.5,-0.2 0.5,-0.5 V 0.9 c 0,-0.3 -0.2,-0.5 -0.5,-0.5 h -10.2 c -0.3,0 -0.5,0.2 -0.5,0.5 v 20.2 c 0,0.3 0.2,0.5 0.5,0.5 h 10.5 c 0.3,0 0.5,-0.2 0.5,-0.5 v -2.5 c 0,-0.3 -0.2,-0.5 -0.5,-0.5 h -6.8 c -0.2,0 -0.3,-0.2 -0.3,-0.3 z M 6.8,10.8 v 2.1 c 0,0.3 0.2,0.5 0.5,0.5 h 1.6 c 0.2,0 0.3,0.1 0.3,0.3 V 16 c 0,1.3 -1.1,2.4 -2.4,2.4 H 6.5 C 5.2,18.4 4.1,17.3 4.1,16 V 5.9 C 4.1,4.6 5.2,3.6 6.5,3.6 h 0.3 c 1.4,0 2.3,1 2.3,2.2 V 6 c 0,0.3 0.2,0.5 0.5,0.5 h 2.8 c 0.3,0 0.5,-0.2 0.5,-0.5 V 5.5 C 12.9,2.5 10.6,0 6.7,0 H 6.5 C 2.7,0 0,2.6 0,5.8 V 16.1 C 0,19.3 2.7,22 6.5,22 h 0.3 c 3.9,0 6.2,-2.6 6.2,-5.9 v -5.3 c 0,-0.3 -0.2,-0.5 -0.5,-0.5 H 7.3 c -0.3,0 -0.5,0.2 -0.5,0.5 z"
         inkscape:connector-curvature="0"
         style="fill:#ffffff" />
    </g>
    <path
       style="opacity:1;vector-effect:none;fill:#000000;fill-opacity:1;stroke:#000000;stroke-width:0.0233894;stroke-linecap:butt;stroke-linejoin:miter;stroke-miterlimit:4;stroke-dasharray:none;stroke-dashoffset:0;stroke-opacity:1"
       d="m 12.605448,169.93619 c -2.059049,-0.27385 -4.0843837,-1.18675 -5.4936517,-2.47678 -1.355513,-1.24084 -2.181931,-2.64594 -2.637096,-4.48362 -0.16045,-0.64778 -0.165569,-0.8774 -0.195292,-8.76518 -0.02003,-5.30411 -0.0015,-8.41397 0.053,-9.00962 0.372531,-4.05588 3.404728,-7.11226 7.7983117,-7.86046 1.063644,-0.18087 3.273762,-0.18256 4.311959,-0.003 3.899707,0.67465 6.463112,2.98679 7.210283,6.50364 0.05481,0.25808 0.101636,0.97432 0.104046,1.59122 l 0.0045,1.12161 -0.221989,0.18933 -0.221989,0.18933 h -2.373068 c -1.967288,0 -2.412802,-0.0225 -2.605355,-0.11889 -0.256184,-0.1313 -0.262523,-0.15102 -0.38131,-1.20309 -0.213586,-1.89161 -1.520013,-2.98246 -3.571834,-2.98246 -1.609273,0 -2.831846,0.68413 -3.475032,1.94441 -0.140032,0.27442 -0.276496,0.70266 -0.321095,1.00773 -0.104046,0.71123 -0.103594,15.13821 3.46e-4,15.86961 0.288588,2.02955 2.24231,3.41769 4.357793,3.09622 1.714072,-0.26033 2.954999,-1.52811 3.163662,-3.23185 0.116695,-0.95245 0.06565,-3.85449 -0.07017,-3.98888 -0.07423,-0.0733 -0.531355,-0.1127 -1.648934,-0.14087 -1.507005,-0.0394 -1.550114,-0.0451 -1.697298,-0.22371 -0.139431,-0.17073 -0.151024,-0.33189 -0.151024,-2.09705 0,-1.90845 3.91e-4,-1.91262 0.187854,-2.09807 0.112778,-0.11157 0.32617,-0.20567 0.534051,-0.23553 0.190414,-0.0282 2.108556,-0.0394 4.262555,-0.0282 4.251835,0.0282 4.168433,0.0169 4.354766,0.46206 0.06114,0.14594 0.07755,1.59775 0.05496,4.8935 -0.02997,4.38355 -0.04246,4.7311 -0.19478,5.39004 -0.810576,3.50739 -3.17449,5.75675 -6.906518,6.57182 -0.706667,0.1544 -3.386269,0.22709 -4.231327,0.11495 z"
       id="path841"
       inkscape:connector-curvature="0" />
    <path
       style="opacity:1;vector-effect:none;fill:#000000;fill-opacity:1;stroke:#000000;stroke-width:0.0233894;stroke-linecap:butt;stroke-linejoin:miter;stroke-miterlimit:4;stroke-dasharray:none;stroke-dashoffset:0;stroke-opacity:1"
       d="m 26.801148,169.16439 c -0.145302,-0.14369 -0.231279,-0.30991 -0.231279,-0.4474 0,-0.15496 6.673824,-26.50668 7.683404,-30.3383 0.0536,-0.20341 0.15803,-0.34541 0.33138,-0.44966 0.23636,-0.14256 0.41304,-0.1527 2.67088,-0.15326 1.86952,-2.3e-4 2.44993,0.0225 2.55961,0.10255 0.10765,0.0778 1.06216,3.77967 3.97008,15.39781 2.10553,8.41238 3.82869,15.37718 3.82921,15.47731 5.6e-4,0.1003 -0.10314,0.28513 -0.23031,0.41078 l -0.23126,0.22878 h -2.36896 c -2.23388,0 -2.38025,-0.0113 -2.56633,-0.15384 -0.23,-0.17918 -0.22731,-0.1696 -0.88838,-2.97388 -0.36497,-1.54794 -0.5457,-2.17735 -0.64614,-2.24998 -0.10856,-0.0789 -0.88583,-0.10087 -3.51766,-0.10087 -3.10318,0 -3.39133,0.0113 -3.53941,0.13693 -0.12588,0.10706 -0.28497,0.66761 -0.72707,2.56305 -0.48796,2.0921 -0.59285,2.45036 -0.76184,2.60216 -0.19437,0.17468 -0.21587,0.17581 -2.65031,0.17581 h -2.454351 z m 12.796275,-10.64946 c 0.0797,-0.16623 -0.084,-1.09975 -1.09082,-6.22174 -0.65151,-3.31434 -1.20471,-6.07889 -1.22936,-6.14347 -0.0327,-0.0856 -0.062,-0.0648 -0.10902,0.0783 -0.0354,0.10762 -0.62207,2.87217 -1.30387,6.14347 -1.03659,4.97368 -1.22566,5.98321 -1.15439,6.1642 l 0.0852,0.21638 2.35426,-0.0225 2.35425,-0.0225 z"
       id="path843"
       inkscape:connector-curvature="0" />
    <path
       style="opacity:1;vector-effect:none;fill:#000000;fill-opacity:1;stroke:#000000;stroke-width:0.06615517;stroke-linecap:butt;stroke-linejoin:miter;stroke-miterlimit:4;stroke-dasharray:none;stroke-dashoffset:0;stroke-opacity:1"
       d="m 52.184173,169.38499 c -0.22006,-0.0907 -0.27973,-3.45898 -0.27973,-15.78925 0,-14.08851 0.0358,-15.68767 0.35398,-15.80842 0.43021,-0.16341 4.18893,-0.17975 4.60927,-0.0225 0.16525,0.0626 1.6085,2.95011 3.20719,6.41648 1.5987,3.46631 2.96719,6.30366 3.04109,6.30524 0.0739,0.001 1.36738,-2.66172 2.87437,-5.91841 1.507,-3.2567 2.88385,-6.14539 3.05968,-6.4193 0.29759,-0.46374 0.47838,-0.49812 2.61945,-0.49812 1.49035,0 2.39429,0.0935 2.56831,0.2654 0.38845,0.3843 0.38845,30.95965 0,31.34389 -0.36934,0.36513 -5.13566,0.36513 -5.505,0 -0.19922,-0.19722 -0.27287,-2.5253 -0.28532,-9.02021 l -0.0167,-8.75459 -1.65202,3.38438 -1.65202,3.38444 -1.93019,-0.0642 -1.93019,-0.0642 -1.82769,-3.41955 -1.82769,-3.41954 -0.11188,9.06411 -0.11188,9.0641 -2.4616,0.0394 c -1.35387,0.0225 -2.58746,-0.0113 -2.74131,-0.0738 z"
       id="path845"
       inkscape:connector-curvature="0" />
    <path
       style="opacity:1;vector-effect:none;fill:#000000;fill-opacity:1;stroke:#000000;stroke-width:0.01653879;stroke-linecap:butt;stroke-linejoin:miter;stroke-miterlimit:4;stroke-dasharray:none;stroke-dashoffset:0;stroke-opacity:1"
       d="m 79.904593,169.18665 c -0.14108,-0.0699 -0.21547,-0.15665 -0.26614,-0.31048 -0.0559,-0.16961 -0.0673,-3.3406 -0.0559,-15.48554 l 0.0151,-15.27249 0.1827,-0.16116 0.18271,-0.16172 h 8.05802 c 8.86785,0 8.31078,-0.0225 8.438,0.33866 0.0857,0.24286 0.0857,4.33689 0,4.57997 -0.12498,0.35443 0.1304,0.33866 -5.44836,0.33866 h -5.06837 l -0.13732,0.1358 -0.13732,0.13579 v 3.54058 c 0,2.16614 0.0212,3.59575 0.0545,3.68258 0.03,0.0778 0.13702,0.19158 0.23777,0.25244 0.17902,0.10819 0.2843,0.11044 4.59321,0.11044 l 4.41,2.3e-4 0.16352,0.16172 0.16354,0.16172 v 2.22203 2.22209 l -0.16354,0.16172 -0.16352,0.16172 h -4.51045 -4.51043 l -0.13733,0.1358 -0.13732,0.1358 v 3.78575 c 0,3.73926 10e-4,3.78749 0.11534,3.93073 l 0.11534,0.14538 5.36609,0.0169 5.36606,0.0169 0.15511,0.15326 0.1551,0.15327 v 2.23871 2.23871 l -0.1551,0.15327 -0.15512,0.15327 -8.26465,0.0169 c -7.78604,0.0113 -8.27598,0.0113 -8.46046,-0.0828 z"
       id="path847"
       inkscape:connector-curvature="0" />
    <path
       style="opacity:1;vector-effect:none;fill:#000000;fill-opacity:1;stroke:#000000;stroke-width:0.0233894;stroke-linecap:butt;stroke-linejoin:miter;stroke-miterlimit:4;stroke-dasharray:none;stroke-dashoffset:0;stroke-opacity:1"
       d="m 107.02391,169.26987 c -0.15692,-0.15552 -0.15825,-0.26145 -0.15939,-12.89347 -9.4e-4,-10.1075 -0.0218,-12.77728 -0.10119,-12.93257 l -0.1,-0.19553 -2.80643,-0.0394 c -1.54355,-0.0225 -2.81587,-0.0507 -2.82739,-0.0586 -0.012,-0.0113 -0.0915,-0.13129 -0.17772,-0.27159 -0.14651,-0.23779 -0.1568,-0.39951 -0.15707,-2.46879 l -3e-4,-2.21442 0.1942,-0.19215 0.19421,-0.19215 h 8.86045 8.86046 l 0.21972,0.18708 c 0.20734,0.17637 0.21865,0.21919 0.20059,0.76301 -0.0105,0.31668 -0.0837,1.3301 -0.16263,2.25162 -0.14124,1.64908 -0.14696,1.67838 -0.35883,1.8587 l -0.21532,0.18313 h -2.69082 c -1.70355,0 -2.74696,0.0282 -2.84386,0.0811 -0.15043,0.0795 -0.15303,0.30766 -0.15303,12.99484 v 12.91381 l -0.19421,0.19215 -0.19419,0.19215 h -2.61451 c -2.50902,0 -2.62089,-0.006 -2.77275,-0.15665 z"
       id="path849"
       inkscape:connector-curvature="0" />
    <path
       style="opacity:1;vector-effect:none;fill:#d13239;fill-opacity:1;stroke:#000000;stroke-width:0.0233894;stroke-linecap:butt;stroke-linejoin:miter;stroke-miterlimit:4;stroke-dasharray:none;stroke-dashoffset:0;stroke-opacity:1"
       d="m 124.38874,169.33603 c -0.087,-0.0451 -0.20275,-0.14087 -0.25714,-0.20793 -0.0783,-0.0969 -0.0989,-3.32138 -0.0989,-15.52859 v -15.40598 l 0.1942,-0.19214 0.19421,-0.19215 h 2.61009 2.61009 l 0.22199,0.18876 0.22199,0.18877 v 15.39144 15.39144 l -0.25838,0.22821 -0.25838,0.22821 -2.51077,-0.003 c -1.66395,-0.001 -2.56413,-0.0338 -2.66901,-0.0879 z"
       id="path851"
       inkscape:connector-curvature="0" />
    <path
       style="opacity:1;vector-effect:none;fill:#000000;fill-opacity:1;stroke:#000000;stroke-width:0.0233894;stroke-linecap:butt;stroke-linejoin:miter;stroke-miterlimit:4;stroke-dasharray:none;stroke-dashoffset:0;stroke-opacity:1"
       d="m 152.3967,169.4902 c -0.36425,-0.21075 -0.35087,0.14368 -0.35352,-9.35723 -0.001,-4.96078 -0.0297,-9.0196 -0.0628,-9.0196 -0.0331,0 -0.80755,1.51842 -1.72082,3.37424 -1.14576,2.32831 -1.72983,3.43211 -1.88416,3.56087 -0.21888,0.18257 -0.25638,0.18651 -1.75913,0.18651 h -1.5355 l -0.23231,-0.21525 c -0.1438,-0.13354 -0.88995,-1.49063 -1.95943,-3.56486 l -1.72714,-3.34968 -0.0396,8.90617 c -0.0425,9.56628 -0.0242,9.18204 -0.44511,9.34038 -0.10917,0.0394 -1.21739,0.0738 -2.46764,0.0727 -2.05888,-0.001 -2.30026,-0.0169 -2.60077,-0.15045 -0.26673,-0.12002 -0.34832,-0.20736 -0.41893,-0.44853 -0.0632,-0.21582 -0.0812,-4.53642 -0.0643,-15.46932 l 0.0233,-15.16982 0.22199,-0.18877 0.22199,-0.18876 h 2.32082 c 2.0936,0 2.33726,0.0113 2.48871,0.13692 0.0931,0.0761 1.52057,2.98093 3.20156,6.5152 1.6685,3.50807 3.06055,6.37827 3.09344,6.37827 0.0328,0 1.35558,-2.83498 2.93936,-6.3 1.64745,-3.60431 2.95085,-6.35855 3.04611,-6.43693 0.15013,-0.1234 0.39086,-0.13693 2.43731,-0.13693 2.17172,0 2.27824,0.006 2.44295,0.1589 0.0947,0.0873 0.19135,0.23667 0.21477,0.33246 0.0233,0.0958 0.0327,7.04915 0.0208,15.45218 l -0.0218,15.27824 -0.18011,0.17806 c -0.17872,0.17693 -0.19892,0.17862 -2.61091,0.19722 -1.74376,0.0113 -2.47553,-0.006 -2.58904,-0.0727 z"
       id="path853"
       inkscape:connector-curvature="0" />
    <path
       style="opacity:1;vector-effect:none;fill:#000000;fill-opacity:1;stroke:#000000;stroke-width:0.0233894;stroke-linecap:butt;stroke-linejoin:miter;stroke-miterlimit:4;stroke-dasharray:none;stroke-dashoffset:0;stroke-opacity:1"
       d="m 126.37998,169.35073 c -1.80933,-0.0394 -2.05516,-0.0569 -2.14291,-0.1758 -0.12167,-0.16454 -0.20436,-9.16554 -0.20436,-22.24665 v -8.69846 l 0.2219,-0.21018 0.22191,-0.21018 h 2.56269 2.5627 l 0.22189,0.21018 0.22191,0.21018 v 15.34822 15.34828 l -0.26089,0.25019 c -0.24756,0.23722 -0.28907,0.24905 -0.81097,0.23328 -0.30253,-0.0113 -1.46977,-0.0338 -2.59387,-0.0586 z"
       id="path855"
       inkscape:connector-curvature="0" />
    <path
       style="opacity:1;vector-effect:none;fill:#000000;fill-opacity:1;stroke:#000000;stroke-width:0.0233894;stroke-linecap:butt;stroke-linejoin:miter;stroke-miterlimit:4;stroke-dasharray:none;stroke-dashoffset:0;stroke-opacity:1"
       d="m 163.33837,169.3052 c -0.13672,-0.0733 -0.24373,-0.22088 -0.29625,-0.40796 -0.11413,-0.40683 -0.11458,-30.15133 -4.7e-4,-30.55782 0.15997,-0.56974 -0.46263,-0.5308 8.43581,-0.5308 h 8.00851 l 0.22199,0.18876 0.22199,0.18877 0.025,1.98261 c 0.0136,1.09039 0.003,2.10117 -0.025,2.24609 -0.0276,0.14482 -0.13507,0.34767 -0.23893,0.45023 l -0.18896,0.18707 h -5.11194 c -3.37249,0 -5.16402,0.0282 -5.26498,0.0811 -0.14801,0.0783 -0.15303,0.20342 -0.15303,3.81911 0,2.8031 0.0238,3.76158 0.095,3.83201 0.0715,0.071 1.18265,0.0941 4.51495,0.0941 3.20864,0 4.46739,0.0225 4.59283,0.0913 0.35917,0.18933 0.36545,0.23159 0.3681,2.49746 l 0.003,2.15814 -0.20413,0.18989 -0.20411,0.18989 -4.47788,0.0225 c -3.10559,0.0169 -4.50994,0.0451 -4.58253,0.10706 -0.0842,0.0693 -0.10466,0.82798 -0.10466,3.87715 0,2.46371 0.0286,3.84424 0.0819,3.94257 0.0796,0.14763 0.22202,0.15157 5.28116,0.15157 3.33378,2.9e-4 5.30488,0.0282 5.49362,0.0811 0.53294,0.1465 0.53669,0.16453 0.53388,2.61607 -0.003,2.30312 -0.009,2.34341 -0.36811,2.53285 -0.12829,0.0676 -2.26936,0.0902 -8.30745,0.0879 -6.99913,-0.003 -8.1645,-0.0169 -8.34867,-0.11833 z"
       id="path857"
       inkscape:connector-curvature="0" />
  </g>
</svg>
