<svg width="17" height="17" viewBox="0 0 17 17" fill="none" xmlns="http://www.w3.org/2000/svg">
<path d="M10.8612 8.34008C10.8612 8.86687 10.7067 9.38184 10.4174 9.81985C10.1281 10.2579 9.71689 10.5993 9.23577 10.8008C8.75465 11.0024 8.22524 11.0552 7.71449 10.9524C7.20373 10.8496 6.73457 10.596 6.36634 10.2235C5.99811 9.85097 5.74734 9.37638 5.64574 8.85971C5.54415 8.34304 5.59629 7.80749 5.79558 7.3208C5.99486 6.83411 6.33234 6.41812 6.76534 6.12545C7.19834 5.83278 7.7074 5.67657 8.22816 5.67657C8.92581 5.67876 9.59427 5.96009 10.0876 6.45912C10.5809 6.95815 10.859 7.63435 10.8612 8.34008ZM16.4563 4.67775V12.0024C16.4563 13.2386 15.9709 14.4242 15.1067 15.2983C14.2426 16.1725 13.0706 16.6636 11.8486 16.6636H4.60777C3.38571 16.6636 2.21371 16.1725 1.34958 15.2983C0.48546 14.4242 0 13.2386 0 12.0024V4.67775C0 3.44154 0.48546 2.25596 1.34958 1.38182C2.21371 0.507685 3.38571 0.0166016 4.60777 0.0166016H11.8486C13.0706 0.0166016 14.2426 0.507685 15.1067 1.38182C15.9709 2.25596 16.4563 3.44154 16.4563 4.67775ZM12.1777 8.34008C12.1777 7.54989 11.946 6.77745 11.5121 6.12043C11.0781 5.46341 10.4613 4.95133 9.73958 4.64893C9.0179 4.34654 8.22378 4.26742 7.45765 4.42158C6.69152 4.57574 5.98778 4.95625 5.43543 5.515C4.88308 6.07375 4.50693 6.78564 4.35453 7.56064C4.20214 8.33565 4.28035 9.13896 4.57928 9.869C4.87821 10.599 5.38443 11.223 6.03393 11.662C6.68342 12.101 7.44702 12.3354 8.22816 12.3354C9.27564 12.3354 10.2802 11.9144 11.0209 11.1652C11.7616 10.4159 12.1777 9.39969 12.1777 8.34008ZM13.4942 4.01187C13.4942 3.81432 13.4363 3.62121 13.3278 3.45696C13.2193 3.2927 13.0651 3.16468 12.8847 3.08908C12.7042 3.01349 12.5057 2.99371 12.3142 3.03225C12.1226 3.07079 11.9467 3.16591 11.8086 3.3056C11.6705 3.44529 11.5765 3.62326 11.5384 3.81701C11.5003 4.01076 11.5199 4.21159 11.5946 4.3941C11.6693 4.57661 11.7959 4.73261 11.9582 4.84236C12.1206 4.95211 12.3115 5.01069 12.5068 5.01069C12.7687 5.01069 13.0198 4.90546 13.205 4.71814C13.3902 4.53083 13.4942 4.27677 13.4942 4.01187Z" fill="#27292A"/>
</svg>
