<svg width="18" height="17" viewBox="0 0 18 17" fill="none" xmlns="http://www.w3.org/2000/svg">
<path d="M12.7102 9.84292C12.7758 9.30247 12.8249 8.76202 12.8249 8.2052C12.8249 7.64838 12.7758 7.10793 12.7102 6.56748H15.478C15.609 7.09155 15.6909 7.64019 15.6909 8.2052C15.6909 8.77021 15.609 9.31885 15.478 9.84292M11.2609 14.3958C11.7522 13.4868 12.1289 12.5042 12.3909 11.4806H14.8065C14.0132 12.8467 12.7546 13.8815 11.2609 14.3958ZM11.0561 9.84292H7.22388C7.142 9.30247 7.09286 8.76202 7.09286 8.2052C7.09286 7.64838 7.142 7.09974 7.22388 6.56748H11.0561C11.1298 7.09974 11.1872 7.64838 11.1872 8.2052C11.1872 8.76202 11.1298 9.30247 11.0561 9.84292ZM9.14001 14.7233C8.46036 13.7407 7.91173 12.6516 7.57599 11.4806H10.704C10.3683 12.6516 9.81967 13.7407 9.14001 14.7233ZM5.86458 4.92976H3.4735C4.25867 3.55998 5.51639 2.52353 7.01098 2.01462C6.51966 2.92355 6.15118 3.90619 5.86458 4.92976ZM3.4735 11.4806H5.86458C6.15118 12.5042 6.51966 13.4868 7.01098 14.3958C5.51953 13.8813 4.26358 12.8463 3.4735 11.4806ZM2.80204 9.84292C2.67102 9.31885 2.58914 8.77021 2.58914 8.2052C2.58914 7.64019 2.67102 7.09155 2.80204 6.56748H5.56979C5.50428 7.10793 5.45515 7.64838 5.45515 8.2052C5.45515 8.76202 5.50428 9.30247 5.56979 9.84292M9.14001 1.67889C9.81967 2.66152 10.3683 3.75879 10.704 4.92976H7.57599C7.91173 3.75879 8.46036 2.66152 9.14001 1.67889ZM14.8065 4.92976H12.3909C12.1346 3.91557 11.7551 2.93657 11.2609 2.01462C12.7676 2.5305 14.0204 3.57045 14.8065 4.92976ZM9.14001 0.0166016C4.61172 0.0166016 0.951416 3.70147 0.951416 8.2052C0.951416 10.377 1.81414 12.4598 3.3498 13.9954C4.11018 14.7558 5.01289 15.359 6.00637 15.7705C6.99986 16.182 8.06467 16.3938 9.14001 16.3938C11.3118 16.3938 13.3946 15.5311 14.9302 13.9954C16.4659 12.4598 17.3286 10.377 17.3286 8.2052C17.3286 7.12986 17.1168 6.06505 16.7053 5.07156C16.2938 4.07807 15.6906 3.17537 14.9302 2.41499C14.1698 1.6546 13.2671 1.05144 12.2737 0.639922C11.2802 0.228406 10.2154 0.0166016 9.14001 0.0166016Z" fill="#27292A"/>
</svg>
