<svg width="81" height="106" viewBox="0 0 81 106" fill="none" xmlns="http://www.w3.org/2000/svg">
<path d="M66.6372 64H16.5406L15.1372 75C15.1372 77.4 17.1372 78.6667 18.1372 79L28.6372 80.5C28.6372 78.5 31.9705 75 33.6372 73.5C35.3039 72.5 39.6372 70.9 43.6372 72.5C47.6372 74.1 49.6372 79.1667 50.1372 81.5L50.6372 83.5C53.3039 83.8333 58.9372 84.6 60.1372 85C61.3372 85.4 63.3039 83.8333 64.1372 83L66.6372 64Z" fill="url(#paint0_linear_192_3301)"/>
<path d="M66.6372 64C66.6372 64.8284 55.2205 65.5 41.1372 65.5C27.0539 65.5 17.1372 64.8284 17.1372 64C17.1372 63.1716 27.0539 62.5 41.1372 62.5C55.2205 62.5 66.6372 63.1716 66.6372 64Z" fill="url(#paint1_linear_192_3301)"/>
<path d="M60.1928 6.02418C60.3132 5.56223 60.7242 5.28104 61.1173 5.33288L70.5534 6.57743C72.6978 6.86027 74.207 8.82799 73.9241 10.9725L64.6315 81.4286C64.3486 83.5731 62.3809 85.0822 60.2364 84.7994L50.8004 83.5548C50.4073 83.503 50.0832 83.1248 50.0867 82.6475C50.1256 77.3381 46.2041 72.7084 40.8046 71.9962C35.405 71.284 30.4172 74.7387 29.0782 79.8766C28.9578 80.3386 28.5468 80.6197 28.1537 80.5679L18.7176 79.3233C16.5732 79.0405 15.064 77.0728 15.3469 74.9283L24.6395 4.47217C24.9224 2.3277 26.8901 0.818564 29.0346 1.1014L38.4706 2.34596C38.8637 2.3978 39.1878 2.77594 39.1843 3.25331C39.1454 8.5627 43.0669 13.1924 48.4664 13.9046C53.866 14.6167 58.8537 11.1621 60.1928 6.02418Z" stroke="#6F6B6B" stroke-width="1.05024"/>
<circle cx="34.7264" cy="50.264" r="1.80557" transform="rotate(52.5135 34.7264 50.264)" fill="#2E2A2A" fill-opacity="0.8"/>
<circle cx="40.361" cy="45.6627" r="3.38962" transform="rotate(52.5135 40.361 45.6627)" fill="#2E2A2A" fill-opacity="0.8"/>
<circle cx="49.1885" cy="38.4833" r="5.8681" transform="rotate(52.5135 49.1885 38.4833)" fill="#2E2A2A" fill-opacity="0.8"/>
<g filter="url(#filter0_f_192_3301)">
<ellipse cx="42.1372" cy="98.5" rx="33.5" ry="2.5" fill="#3F3F3F" fill-opacity="0.9"/>
</g>
<defs>
<filter id="filter0_f_192_3301" x="4.23721" y="91.6" width="75.8" height="13.8" filterUnits="userSpaceOnUse" color-interpolation-filters="sRGB">
<feFlood flood-opacity="0" result="BackgroundImageFix"/>
<feBlend mode="normal" in="SourceGraphic" in2="BackgroundImageFix" result="shape"/>
<feGaussianBlur stdDeviation="2.2" result="effect1_foregroundBlur_192_3301"/>
</filter>
<linearGradient id="paint0_linear_192_3301" x1="40.8872" y1="64" x2="40.8872" y2="85.0642" gradientUnits="userSpaceOnUse">
<stop stop-color="#42D988"/>
<stop offset="1" stop-color="#13C063"/>
</linearGradient>
<linearGradient id="paint1_linear_192_3301" x1="41.8872" y1="62.5" x2="41.8872" y2="65.5" gradientUnits="userSpaceOnUse">
<stop stop-color="#0AE06D"/>
<stop offset="1" stop-color="#00BC57"/>
</linearGradient>
</defs>
</svg>
