<?xml version="1.0" standalone="no"?>
<!DOCTYPE svg PUBLIC "-//W3C//DTD SVG 20010904//EN"
 "http://www.w3.org/TR/2001/REC-SVG-20010904/DTD/svg10.dtd">
<svg version="1.0" xmlns="http://www.w3.org/2000/svg"
 width="2000.000000pt" height="1125.000000pt" viewBox="0 0 2000.000000 1125.000000"
 preserveAspectRatio="xMidYMid meet">

<g transform="translate(0.000000,1125.000000) scale(0.100000,-0.100000)"
fill="#000000" stroke="none">
<path d="M10083 8539 c35 -197 5 -549 -65 -764 l-23 -70 -187 -17 c-364 -32
-643 -87 -863 -169 l-58 -22 34 -28 c19 -16 71 -55 116 -86 45 -32 82 -61 82
-65 1 -5 -8 -8 -19 -8 -10 0 -79 -15 -152 -34 -514 -132 -1019 -422 -1423
-818 l-130 -128 168 7 167 6 -106 -104 c-121 -119 -203 -217 -283 -339 -63
-96 -137 -237 -129 -245 3 -3 30 8 59 26 71 42 231 120 236 115 2 -2 -16 -34
-42 -72 -57 -86 -126 -226 -159 -324 -27 -83 -61 -238 -53 -246 3 -3 36 14 73
38 258 164 644 345 922 432 215 67 460 117 662 136 202 18 450 10 450 -14 0
-6 -34 -117 -75 -246 -41 -129 -72 -236 -70 -238 2 -3 90 30 195 72 104 42
192 76 194 76 3 0 -20 -55 -51 -122 -83 -186 -253 -576 -253 -581 0 -3 33 17
73 43 311 206 689 338 1062 371 214 19 442 -16 539 -83 17 -12 92 -83 166
-158 191 -193 322 -281 478 -321 198 -50 378 6 543 171 68 67 95 103 127 169
23 46 42 90 42 98 0 9 26 48 58 87 31 40 73 95 92 123 21 31 52 60 78 73 54
29 135 117 168 182 33 66 64 188 64 255 l0 53 -102 83 c-152 122 -299 268
-340 338 -30 50 -35 67 -31 99 4 30 1 45 -16 67 -21 26 -21 28 -5 40 10 7 33
19 51 25 18 7 33 18 33 25 0 6 -14 79 -30 160 -33 161 -77 311 -119 413 -24
57 -26 71 -18 115 15 82 13 401 -2 485 -29 163 -93 320 -183 447 -47 67 -347
407 -363 411 -6 1 -17 -78 -27 -200 -18 -218 -37 -335 -70 -438 -34 -106 -30
-103 -89 -80 -28 11 -89 27 -137 35 -88 14 -396 35 -528 35 l-72 0 -36 77
c-103 217 -328 462 -580 633 l-49 33 6 -34z m333 -806 c49 -108 98 -260 123
-378 23 -114 44 -311 39 -370 l-3 -40 -55 73 c-30 39 -58 72 -63 72 -4 0 -33
-23 -63 -52 -30 -28 -56 -49 -57 -47 -2 2 -18 25 -36 52 l-32 47 -65 -36 c-35
-20 -64 -34 -64 -32 0 2 16 37 36 77 70 143 162 465 180 631 11 104 14 104 60
3z m1152 -904 c73 -96 83 -114 104 -193 23 -87 24 -89 101 -163 88 -84 94 -80
-67 -44 l-79 17 -29 74 c-16 41 -31 76 -33 78 -7 8 -339 122 -346 120 -5 -2
14 -28 41 -58 46 -51 49 -59 50 -108 0 -81 40 -146 112 -183 21 -10 44 -19 53
-19 8 0 15 -5 15 -11 0 -8 -16 -9 -52 -5 -86 11 -125 25 -170 59 -53 41 -85
96 -102 180 -12 57 -24 78 -111 191 -53 70 -95 129 -93 131 2 3 127 -34 277
-81 150 -47 275 -84 278 -81 4 5 -37 140 -75 247 -7 19 23 -17 126 -151z
m-1443 26 c177 -23 445 -80 445 -94 0 -3 -48 -16 -108 -29 -59 -13 -168 -43
-242 -68 -140 -47 -405 -168 -396 -182 3 -5 61 -26 130 -48 70 -21 126 -41
125 -44 0 -3 -27 -18 -60 -34 -72 -36 -180 -126 -234 -196 -22 -29 -47 -61
-55 -71 -14 -19 -19 -19 -115 -4 -427 65 -1051 -11 -1590 -193 -33 -11 -61
-19 -63 -17 -6 5 233 181 365 268 336 222 704 402 1008 493 l60 18 -100 8
c-131 10 -452 -7 -606 -32 -67 -11 -127 -23 -133 -27 -7 -4 -8 -3 -1 4 12 12
156 74 269 115 178 66 461 126 686 148 131 12 470 4 615 -15z m780 -408 c-44
-23 -110 -63 -145 -89 -66 -47 -167 -144 -159 -152 2 -2 60 9 129 25 221 51
349 71 409 64 82 -10 212 -61 294 -114 40 -26 77 -50 84 -54 7 -4 23 14 42 48
43 76 104 115 180 115 61 0 124 -24 173 -65 36 -30 32 -30 -77 -5 -47 11 -90
20 -95 20 -4 0 8 -29 28 -64 l37 -64 123 -53 c67 -29 121 -54 119 -55 -1 -1
-44 5 -95 15 -51 10 -91 14 -90 9 2 -4 19 -28 38 -52 27 -33 48 -48 88 -61 30
-9 81 -28 115 -41 l62 -24 -84 6 -84 6 28 -36 c24 -32 40 -40 144 -72 167 -50
169 -53 70 -53 l-87 -1 -11 -44 c-17 -71 -14 -95 18 -125 27 -25 107 -58 117
-48 2 2 -3 20 -11 40 -20 48 -20 47 19 47 48 0 66 -22 66 -80 l0 -48 -42 -8
c-65 -11 -177 -6 -258 10 -146 31 -241 124 -390 384 -61 108 -157 204 -244
247 -87 44 -149 52 -269 35 -233 -32 -399 -125 -462 -262 -39 -83 -38 -85 58
-93 184 -15 239 -32 371 -119 106 -69 171 -129 249 -229 35 -45 130 -146 210
-224 160 -155 179 -166 333 -198 43 -9 80 -18 82 -20 8 -8 -43 -66 -78 -89
-100 -66 -237 -60 -381 16 -74 39 -148 112 -215 213 -30 47 -89 116 -135 159
-68 64 -103 88 -203 137 -156 76 -231 93 -386 85 -180 -9 -379 -67 -588 -172
-58 -29 -107 -52 -109 -51 -1 2 96 101 215 222 119 120 238 242 265 270 l47
52 -162 -39 c-90 -21 -171 -41 -181 -44 -11 -3 30 59 97 148 64 85 116 158
116 163 0 11 -108 -3 -187 -25 -37 -10 -69 -17 -71 -15 -2 1 38 46 89 100 182
189 414 311 719 376 47 9 99 18 115 18 25 0 17 -7 -50 -42z m428 -433 c26 -9
49 -20 52 -24 5 -7 -49 -27 -176 -66 -11 -3 -19 7 -28 37 -7 23 -15 47 -18 55
-7 20 110 19 170 -2z m217 -175 l41 -59 -73 0 -73 0 3 86 4 86 28 -27 c16 -16
48 -54 70 -86z m-494 -9 c12 -33 20 -60 18 -60 -2 0 -36 11 -76 24 -40 14 -95
28 -123 32 l-50 7 100 28 c55 15 102 28 105 28 3 1 14 -26 26 -59z m244 -107
c0 -21 -3 -55 -7 -76 l-6 -38 -46 44 c-25 25 -61 54 -80 65 l-34 20 49 7 c27
3 56 8 64 9 52 12 60 7 60 -31z m387 -104 c46 -63 45 -63 -31 -53 l-46 7 0 53
c0 29 3 60 7 70 6 17 7 17 17 0 6 -10 30 -45 53 -77z m-231 -76 c-3 -21 -6
-57 -6 -80 0 -24 -3 -43 -7 -43 -8 1 -106 123 -111 140 -2 5 18 11 45 13 26 2
56 4 67 5 16 2 18 -3 12 -35z m397 -117 c18 -12 50 -30 72 -38 l39 -15 -59
-60 c-69 -68 -136 -104 -209 -111 l-50 -5 52 59 c29 32 67 89 85 126 18 37 33
67 35 67 2 1 18 -10 35 -23z m-300 -51 c50 -6 57 -10 57 -30 0 -33 -11 -85
-19 -85 -3 0 -33 30 -66 67 -33 37 -53 64 -44 61 9 -3 41 -9 72 -13z m734 -58
c-40 -58 -94 -114 -102 -105 -3 2 -1 29 5 58 6 30 8 62 4 72 -4 15 1 18 33 19
21 1 49 4 63 8 14 4 27 6 29 4 2 -1 -12 -27 -32 -56z m-139 38 c1 -1 -12 -24
-30 -50 -31 -45 -84 -94 -91 -84 -1 2 1 37 6 77 l9 72 51 -6 c29 -4 53 -8 55
-9z m-178 -139 c0 -11 -71 -124 -85 -136 -9 -8 -27 -10 -47 -6 -40 8 -118 45
-118 56 0 4 26 13 58 19 31 6 84 24 117 40 60 30 75 35 75 27z m151 -44 c-6
-22 -26 -62 -44 -89 -29 -44 -35 -48 -66 -45 -78 8 -78 14 2 75 41 32 83 69
92 83 22 35 29 25 16 -24z"/>
<path d="M3358 4184 c-35 -19 -48 -43 -48 -93 0 -79 80 -132 148 -97 58 30 78
90 50 151 -23 50 -95 69 -150 39z"/>
<path d="M5050 3450 l0 -730 65 0 65 0 2 235 3 235 263 -235 263 -235 92 0 92
1 -36 32 c-343 307 -569 512 -569 516 0 4 121 111 270 240 148 128 274 239
281 247 10 12 -3 14 -82 14 l-94 -1 -240 -209 -240 -209 -5 412 -5 412 -62 3
-63 3 0 -731z"/>
<path d="M7450 3965 l0 -195 -95 0 -95 0 0 -55 0 -54 93 -3 92 -3 3 -467 2
-468 65 0 65 0 0 470 0 470 105 0 105 0 0 55 0 55 -105 0 -105 0 0 195 0 195
-65 0 -65 0 0 -195z"/>
<path d="M2410 4070 l0 -70 155 0 155 0 2 -637 3 -638 68 -3 c59 -3 67 -1 67
15 0 10 1 299 3 641 l2 624 158 -1 157 -2 0 71 0 70 -385 0 -385 0 0 -70z"/>
<path d="M4205 3789 c-165 -25 -305 -111 -390 -239 -65 -98 -87 -166 -93 -281
-8 -175 34 -286 152 -405 118 -119 235 -164 421 -164 182 0 312 48 422 156 35
34 63 66 63 70 0 5 -24 23 -53 41 l-52 31 -27 -33 c-39 -47 -131 -105 -202
-127 -83 -26 -209 -26 -296 1 -171 54 -285 199 -297 381 -9 129 33 239 127
330 83 81 187 120 320 120 137 0 238 -40 327 -127 l54 -52 49 31 50 31 -18 29
c-44 77 -174 162 -293 192 -77 19 -193 26 -264 15z"/>
<path d="M6433 3789 c-255 -43 -443 -273 -443 -544 0 -149 60 -294 165 -401
101 -103 209 -144 380 -144 155 0 262 37 362 125 46 41 133 155 133 175 0 9
-83 60 -98 60 -5 0 -28 -27 -51 -59 -49 -71 -99 -113 -177 -147 -183 -81 -397
-26 -503 130 -38 55 -69 141 -72 202 l-3 49 472 3 472 2 0 33 c-1 124 -65 272
-161 368 -79 80 -164 125 -275 144 -88 16 -125 17 -201 4z m271 -157 c35 -17
84 -48 108 -71 45 -41 93 -125 104 -181 l7 -30 -392 0 c-311 0 -391 3 -391 13
0 28 69 154 104 189 83 85 177 120 308 114 71 -3 98 -9 152 -34z"/>
<path d="M3350 3245 l0 -525 65 0 65 0 0 525 0 525 -65 0 -65 0 0 -525z"/>
<path d="M15740 3320 c-105 -18 -191 -83 -231 -173 -33 -74 -33 -200 0 -275
59 -131 204 -189 376 -148 l50 12 -2 38 c-2 22 -4 40 -6 42 -1 2 -21 -3 -42
-11 -112 -40 -228 3 -275 101 -18 40 -21 61 -18 125 3 67 7 83 33 121 54 77
168 110 264 77 18 -6 34 -10 36 -8 2 2 6 21 10 41 7 36 6 37 -32 47 -63 16
-115 20 -163 11z"/>
<path d="M16244 3316 c-94 -23 -150 -72 -193 -166 -16 -34 -21 -66 -21 -135 0
-79 4 -98 29 -151 51 -108 144 -161 271 -152 199 15 317 207 255 416 -43 143
-192 226 -341 188z m160 -95 c85 -53 116 -209 64 -323 -38 -81 -86 -112 -168
-106 -54 4 -65 8 -101 44 -96 94 -89 300 13 377 18 14 42 27 53 30 37 10 103
0 139 -22z"/>
<path d="M16959 3315 c-30 -10 -60 -29 -83 -55 -20 -22 -38 -40 -41 -40 -3 0
-5 20 -5 45 l0 45 -45 0 -45 0 0 -295 0 -295 50 0 50 0 0 193 c0 180 1 196 23
237 53 106 176 121 230 27 8 -15 14 -92 17 -237 l5 -215 50 0 50 0 5 210 c5
225 7 234 61 279 47 39 110 37 154 -7 45 -45 55 -103 55 -312 l0 -175 51 0 51
0 -4 223 c-4 207 -6 225 -27 270 -28 58 -68 93 -123 108 -74 19 -163 -12 -214
-76 l-30 -37 -24 38 c-46 70 -126 96 -211 69z"/>
<path d="M15269 2841 c-48 -39 -19 -131 41 -131 45 0 74 31 73 76 -2 65 -64
96 -114 55z"/>
</g>
</svg>
