<svg xmlns="http://www.w3.org/2000/svg" height="800" width="1200" viewBox="-81.10422 -19.171 702.90324 115.026"><path d="M338.3141 66.8267c10.0692 0 13.1824-6.9372 15.2907-15.2934h-4.7246c-6.5375 0-17.3968 1.1128-17.3968 9.8573 0 3.6237 3.4109 5.4361 6.8307 5.4361m13.1824.7028h-.2036c-4.624 5.834-9.2501 9.1545-16.6985 9.1545-9.3486 0-15.9868-5.2325-15.9868-14.782 0-17.0998 19.109-18.4102 31.781-18.4102h4.7247c.4074-1.412.4074-2.9201.4074-4.422 0-5.2326-5.6334-6.7406-10.3647-6.7406-5.931 0-11.665 1.508-16.994 4.0226l1.9136-10.7631c5.7273-2.0091 11.5643-3.1168 17.6005-3.1168 10.3535 0 20.1139 3.825 20.1139 15.9902 0 6.9426-5.1298 27.256-6.3406 37.0171h-11.3606l1.4077-7.9497M2.1122 23.6322h9.755l2.3124-10.6575 14.4857-4.7313-3.3196 15.3888h12.0665l-2.1105 9.8572H23.2325l-4.929 22.632c-.3008 1.2081-.6014 3.0152-.6014 5.0243 0 3.1168 2.1121 5.0297 5.1257 5.0297 2.419 0 4.8303-.5011 6.5387-1.2048l-2.31 10.4605c-2.314.5-4.9263 1.209-7.2423 1.209-9.1517 0-15.5915-3.6246-15.5915-13.5869 0-4.019.8052-7.9399 1.7083-12.0595l3.824-17.5043H0l2.1122-9.8572m45.765-22.3323h13.4783l-2.816 12.8796H45.0603zm-4.9293 22.3323h13.4795L45.3617 75.431h-13.481L42.948 23.632m54.1762 11.8673c-2.6132-1.7102-6.133-2.6124-9.8573-2.6124-10.7595 0-16.7936 10.0559-16.7936 19.8135 0 6.7343 2.2092 13.475 11.465 13.475 3.3213 0 7.446-.9049 10.9633-2.6168l-1.5108 10.6677c-4.1239 2.0092-8.5495 2.4138-12.975 2.4138-13.3753 0-22.0224-8.9524-22.0224-22.3311 0-18.1016 11.9667-31.8807 30.571-31.8807 5.0332 0 9.859.9057 13.4794 2.008l-3.3196 11.063M111.9062 0h13.4783l-8.9548 42.4419h.2079l18.8072-18.8097h17.4982l-24.8385 23.6364 15.5837 28.1625h-15.186l-13.3805-27.458h-.1967l-5.8348 27.458H95.915L111.9062 0m89.6194 23.6322h9.755l2.3124-10.6575 14.4854-4.7313-3.319 15.3888h12.07l-2.115 9.8572h-12.0678l-4.9297 22.632c-.3015 1.2081-.5996 3.0152-.5996 5.0243 0 3.1168 2.1094 5.0297 5.1286 5.0297 2.4127 0 4.8254-.5011 6.533-1.2048l-2.3074 10.4605c-2.3165.5-4.9306 1.209-7.2448 1.209-9.1516 0-15.5906-3.6246-15.5906-13.5869 0-4.019.8044-7.9399 1.7126-12.0595l3.818-17.5043h-9.7532l2.112-9.8572"/><path d="M197.0171 42.1384c0-13.1715-8.447-19.7101-21.2201-19.7101-16.9973 0-29.473 15.4892-29.473 31.5774 0 15.3885 10.0592 22.6344 24.9489 22.6344 5.5288 0 11.263-1.3095 16.4928-2.92l1.7083-10.6669c-5.0279 2.322-10.3617 3.7296-15.8932 3.7296-8.6185 0-13.656-3.065-14.301-11.2062h-.0106c-.0237-.472-.07-.9355-.07-1.431 0-.0962.0045-.1934.0045-.2887 0-.055-.0045-.096-.0045-.1511h.0096c.0604-3.5452.8384-7.043 2.1927-10.276 2.5904-6.5904 6.2483-11.1442 14.1936-11.1442 5.6286 0 8.5493 3.1123 8.5493 8.648 0 1.2048-.1031 2.3124-.3005 3.5172h-18.4436c-1.1967 4.0715-1.404 6.7982-1.4284 9.255h31.7355c.8053-3.825 1.3097-7.6454 1.3097-11.5674m45.6269-12.772c.3984-2.01.8035-4.1197 1.1034-5.7342h12.576l-1.2086 6.9388h.2014c3.6212-5.3243 9.5522-8.1427 15.8883-8.1427 6.1369 0 12.473 3.6185 13.178 9.8573h.2014c3.422-6.7408 10.9667-9.8573 18.2025-9.8573 7.7416 0 14.3866 6.3347 14.3866 14.1786 0 4.6248-1.2153 9.8573-2.3165 14.0784l-5.4319 24.7458h-13.48l5.434-25.247c.705-3.1174 1.71-7.9495 1.71-11.0618 0-3.825-2.914-6.2354-6.3339-6.2354-9.3575 0-11.6695 10.8654-13.3816 17.904l-5.3267 24.6402h-13.4779l5.4319-25.247c.7072-3.1174 1.71-7.9495 1.71-11.0618 0-3.825-2.9208-6.2354-6.3406-6.2354-9.1494 0-11.665 10.9616-13.3727 17.904l-5.3334 24.6402h-13.4734l9.4537-46.0647m165.1745 4.8128c-1.4458-.7905-5.1656-1.8936-8.986-1.8936-4.0264 0-9.0532 1.1031-9.0532 5.2228 0 6.542 17.4998 8.9558 17.4998 21.6282 0 13.482-11.7657 17.5035-23.3278 17.5035-5.4363 0-10.8705-.8041-15.7943-3.122l2.9207-10.7594c3.8138 2.107 7.641 4.0241 12.8736 4.0241 4.5165 0 9.2501-1.5123 9.2501-5.7333 0-8.349-17.502-9.1597-17.502-22.1302 0-12.1643 11.768-16.491 22.4258-16.491 4.9328 0 9.964.9057 12.614 1.5946l-2.9207 10.1563m8.6167-10.547h9.7559l2.312-10.6575 14.4782-4.7313-3.3168 15.3888h12.07l-2.1082 9.8572h-12.0768l-4.9283 22.632c-.2977 1.2081-.602 3.0152-.602 5.0243 0 3.1168 2.1172 5.0297 5.1319 5.0297 2.4127 0 4.8276-.5011 6.5375-1.2048l-2.3165 10.4605c-2.3142.5-4.9238 1.209-7.2357 1.209-9.1561 0-15.593-3.6246-15.593-13.5869 0-4.019.8103-7.9399 1.7122-12.0595l3.8205-17.5043h-9.7582l2.1173-9.8572m91.3728 6.9388a574.0124 574.0124 0 001.2087-6.9388h12.8735l-1.8128 9.7565h.2036c2.4194-5.632 9.0487-10.9604 15.2863-10.9604 1.7121 0 3.5183.096 5.1275.5l-2.8133 13.1732c-1.5062-.5017-3.4265-.8041-5.132-.8041-9.559 0-14.1829 8.5511-15.8883 16.9001l-4.8298 23.2336h-13.4757l9.2524-44.8601m-9.3531 11.5674c0-13.1715-8.4488-19.7101-21.2217-19.7101-16.994 0-29.4714 15.4892-29.4714 31.5774 0 15.3885 10.058 22.6344 24.946 22.6344 5.5258 0 11.2644-1.3095 16.497-2.92l1.7055-10.6669c-5.029 2.322-10.358 3.7296-15.8906 3.7296-8.6234 0-13.6569-3.065-14.3082-11.2062h-.009c-.02-.472-.067-.9355-.067-1.431 0-.0962.0066-.1934.0066-.2887 0-.055-.0067-.096-.0067-.1511h.0067c.0605-3.5452.8393-7.043 2.1934-10.276 2.5872-6.5904 6.2488-11.1442 14.194-11.1442 5.6311 0 8.5518 3.1123 8.5518 8.648 0 1.2048-.1051 2.3124-.2999 3.5172h-18.442c-1.204 4.0715-1.4077 6.7982-1.4368 9.255h31.743c.8058-3.825 1.3093-7.6454 1.3093-11.5674"/></svg>