<svg width="19" height="16" viewBox="0 0 19 16" fill="none" xmlns="http://www.w3.org/2000/svg">
<path d="M18.6152 2.5471C17.9587 2.84895 17.2511 3.0473 16.5179 3.14217C17.2682 2.68509 17.8479 1.96066 18.1207 1.08961C17.4131 1.52082 16.6288 1.82267 15.8018 1.99515C15.1283 1.25347 14.182 0.822266 13.1078 0.822266C11.1043 0.822266 9.46742 2.47811 9.46742 4.52204C9.46742 4.81526 9.50153 5.09986 9.5612 5.3672C6.52616 5.21197 3.8236 3.73724 2.02474 1.50358C1.7093 2.0469 1.53027 2.68509 1.53027 3.35777C1.53027 4.64277 2.16967 5.78116 3.15862 6.42798C2.55332 6.42798 1.99064 6.25549 1.49616 5.99677V6.02264C1.49616 7.81647 2.75793 9.31707 4.42891 9.65342C3.89242 9.80193 3.32921 9.8226 2.7835 9.71379C3.01506 10.449 3.46855 11.0923 4.08023 11.5533C4.69191 12.0142 5.43102 12.2697 6.19367 12.2838C4.9009 13.3191 3.29843 13.8787 1.64962 13.8706C1.35976 13.8706 1.06989 13.8534 0.780029 13.8189C2.39986 14.871 4.3266 15.4834 6.38975 15.4834C13.1078 15.4834 16.7993 9.84315 16.7993 4.95324C16.7993 4.78938 16.7993 4.63415 16.7908 4.47029C17.5069 3.95284 18.1207 3.2974 18.6152 2.5471Z" fill="#27292A"/>
</svg>
